<?xml version="1.0" encoding="utf-8"?>
<svg viewBox="0 0 500 500" xmlns="http://www.w3.org/2000/svg">
  <rect x="18.01" y="44.18" width="372.58" height="415.997" style="paint-order: stroke; stroke: rgb(255, 255, 255); stroke-opacity: 0.98; stroke-width: 0px; fill: rgb(255, 113, 96); transform-origin: 204.3px 252.179px;" transform="matrix(0.998979926109, 0.045156009495, -0.045156009495, 0.998979926109, 40.860572011952, -5.635169840735)" rx="16.956" ry="16.956"/>
  <path fill="#010000" opacity="1.000000" stroke="none" d="M 496.989 239.914 C 497.123 239.27 497.586 238.698 498.351 238.097 C 498.654 238.511 498.654 238.955 498.654 239.733 C 498.209 240.039 497.763 240.013 496.989 239.914 Z"/>
  <path fill="#010000" opacity="1.000000" stroke="none" d="M 127.072 301.908 C 128.079 301.601 129.465 301.345 131.214 301.125 C 130.202 301.427 128.825 301.693 127.072 301.908 Z"/>
  <path fill="#010000" opacity="1.000000" stroke="none" d="M 178.269 226.3 C 178.452 227.192 178.4 228.33 178.117 229.723 C 177.934 228.834 177.984 227.69 178.269 226.3 Z"/>
  <path fill="#010000" opacity="1.000000" stroke="none" d="M 347.224 211.905 C 347.452 212.623 347.385 213.563 347.082 214.768 C 346.872 214.064 346.901 213.096 347.224 211.905 Z"/>
  <path fill="#010000" opacity="1.000000" stroke="none" d="M 224.494 230.717 C 224.19 230.298 223.945 229.581 223.772 228.586 C 224.081 229.011 224.317 229.715 224.494 230.717 Z"/>
  <path fill="#010000" opacity="1.000000" stroke="none" d="M 417.212 228.27 C 416.781 228.559 416.059 228.786 415.051 228.946 C 415.485 228.656 416.202 228.432 417.212 228.27 Z"/>
  <path fill="#010000" opacity="1.000000" stroke="none" d="M 455.14 210.589 C 454.927 210.046 454.928 209.354 455.136 208.494 C 455.347 209.031 455.35 209.735 455.14 210.589 Z"/>
  <path fill="#010000" opacity="1.000000" stroke="none" d="M 453.107 241.357 C 452.939 240.826 452.98 240.164 453.226 239.321 C 453.392 239.835 453.355 240.53 453.107 241.357 Z"/>
  <path fill="#010000" opacity="1.000000" stroke="none" d="M 177.829 244.45 C 178.131 244.903 178.373 245.664 178.576 246.731 C 178.281 246.278 178.026 245.517 177.829 244.45 Z"/>
  <path fill="#010000" opacity="1.000000" stroke="none" d="M 266.309 244.227 C 265.901 244.536 265.199 244.786 264.221 244.977 C 264.634 244.667 265.324 244.418 266.309 244.227 Z"/>
  <path fill="#010000" opacity="1.000000" stroke="none" d="M 246.207 245.281 C 245.766 245.56 245.021 245.787 243.978 245.955 C 244.421 245.674 245.162 245.451 246.207 245.281 Z"/>
  <path fill="#010000" opacity="1.000000" stroke="none" d="M 81.806 297.379 C 82.12 297.754 82.375 298.404 82.551 299.297 C 82.23 298.911 81.989 298.282 81.806 297.379 Z"/>
  <path fill="#010000" opacity="1.000000" stroke="none" d="M 224.991 190.641 C 224.848 190.076 224.92 189.319 225.206 188.359 C 225.349 188.92 225.277 189.685 224.991 190.641 Z"/>
  <path fill="#010000" opacity="1.000000" stroke="none" d="M 80.855 285.443 C 81.134 285.628 81.358 286.071 81.532 286.765 C 81.255 286.577 81.027 286.139 80.855 285.443 Z"/>
  <path fill="#010000" opacity="1.000000" stroke="none" d="M 432.535 221.34 C 432.434 221.816 432.294 222.066 432.154 222.316 C 432.014 222.067 431.71 221.755 431.775 221.583 C 431.858 221.367 432.241 221.265 432.535 221.34 Z"/>
  <path fill="#010000" opacity="1.000000" stroke="none" d="M 494.099 232.809 C 494.516 232.941 494.782 233.225 495.048 233.509 C 494.936 233.599 494.741 233.778 494.725 233.764 C 494.453 233.511 494.204 233.234 494.099 232.809 Z"/>
  <g transform="matrix(1, 0, 0, 1, -301.1156005859375, 11.256312370300293)">
    <path opacity="1.000000" d="M 457.279 195.754 C 457.002 209.045 456.723 222.336 456.388 236.461 C 456.547 238.076 456.762 238.859 456.98 239.641 C 457.37 244.845 457.759 250.049 458.197 255.899 C 463.252 255.899 468.179 255.899 473.782 255.962 C 475.116 255.776 475.772 255.528 476.427 255.28 C 481.262 255.145 486.095 255.01 491.602 254.916 C 492.893 254.682 493.51 254.41 494.129 254.136 C 494.732 252.65 495.943 233.243 495.966 231.744 C 496.117 221.201 495.65 228.57 496 218.04 C 496.612 199.606 498.595 181.387 503.033 163.689 C 503.24 162.86 503.648 162.109 504.062 161.067 C 525.093 167.225 546.005 173.428 566.951 179.448 C 576.698 182.247 586.524 184.619 596.285 187.344 C 598.609 187.994 600.419 189.29 599.959 193.246 C 598.697 204.085 597.642 214.964 596.703 225.852 C 596.384 229.549 596.652 233.325 596.652 237.175 C 605.741 237.175 614.783 237.175 624.494 237.316 C 625.8 237.207 626.435 236.959 627.072 236.711 C 627.936 236.574 628.799 236.435 629.219 236.368 C 630.326 226.565 631.31 216.89 632.553 207.269 C 633.104 202.991 634.725 200.107 639.009 201.415 C 644.941 203.224 650.918 204.929 656.951 206.067 C 661.271 206.883 660.833 210.301 660.353 214.576 C 660.043 215.983 660.042 216.737 660.042 217.494 C 659.969 218.899 659.897 220.302 659.823 221.736 C 664.814 222.277 669.579 222.834 674.35 223.299 C 677.411 223.598 679.938 223.097 682.422 219.874 C 686.666 214.368 692.314 215.089 698.191 216.778 C 698.565 226.613 698.565 236.467 698.298 246.864 C 697.625 248.034 697.217 248.658 696.81 249.282 C 690.197 250.844 684.626 248.94 680.436 241.992 C 679.814 240.961 678.643 239.964 677.648 239.829 C 671.606 239.002 665.539 238.433 658.906 237.715 C 658.906 241.088 658.906 244.36 658.635 248.271 C 658.327 249.635 658.291 250.358 658.254 251.08 C 658.616 254.352 657.073 255.57 654.803 255.987 C 638.626 258.946 622.438 261.813 606.276 264.889 C 595.87 266.868 585.501 269.171 575.112 271.296 C 571.555 272.023 568.538 271.005 567.78 266.082 C 566.567 258.199 565.37 250.272 564.753 242.295 C 564.266 235.983 564.662 229.567 564.953 222.402 C 565.298 220.58 565.357 219.553 565.415 218.526 C 565.415 214.931 565.415 211.334 565.415 207.546 C 554.598 205.411 543.985 203.316 532.888 201.125 C 531.991 212.615 530.858 223.476 530.368 234.384 C 529.768 247.721 529.648 261.094 529.455 274.454 C 529.406 277.864 529.296 279.574 525.663 280.345 C 505.662 284.595 485.768 289.609 465.815 294.215 C 451.988 297.409 438.125 300.37 424.273 303.411 C 424.019 303.466 418.776 288.011 418.211 287.793 C 413.909 273.451 416.751 273.616 416.522 257.31 C 416.399 255.641 416.186 254.811 415.971 253.981 C 415.908 249.159 415.844 244.337 416.079 238.734 C 416.423 236.71 416.468 235.465 416.513 234.222 C 417.778 218.035 419.043 201.846 420.363 184.967 C 415.639 184.003 410.275 182.888 404.906 181.815 C 399.63 180.76 394.335 179.828 389.072 178.684 C 384.236 177.631 382.679 178.401 381.824 184.186 C 379.748 198.232 377.22 212.275 376.306 226.46 C 374.992 246.812 374.683 267.286 374.505 287.716 C 374.435 295.705 375.936 303.706 376.581 311.72 C 376.691 313.103 376.097 314.573 375.181 316.091 C 373.311 316.46 372.09 316.739 370.869 317.019 C 360.674 319.538 350.479 322.067 340.277 324.558 C 339.293 324.798 338.258 324.717 337.262 324.904 C 333.377 325.639 331.368 324.026 332.047 318.769 C 332.183 317.721 332.021 316.61 332.024 314.742 C 331.824 313.248 331.6 312.537 331.375 311.829 C 331.255 308.49 331.135 305.15 331.071 301.036 C 330.929 299.777 330.731 299.292 330.535 298.809 C 330.166 278.522 328.99 258.198 329.62 237.958 C 330.546 208.17 333.173 178.491 338.319 149.29 C 339.958 139.986 342.273 130.856 344.47 121.717 C 345.21 118.64 346.579 117.145 349.873 118.096 C 368.828 123.561 387.877 128.531 406.877 133.765 C 423.443 138.327 439.984 143.015 456.537 147.647 C 458.719 148.257 460.901 148.867 462.746 149.384 C 461.117 164.08 459.578 177.977 457.754 192.574 C 457.406 194.1 457.343 194.927 457.279 195.754 M 640.28 228.828 C 640.056 228.991 639.719 229.104 639.646 229.34 C 639.588 229.528 639.856 229.867 639.979 230.14 C 640.102 229.867 640.226 229.594 640.28 228.828 M 694.421 241.768 C 694.646 242.066 694.864 242.368 695.104 242.644 C 695.119 242.659 695.29 242.465 695.389 242.366 C 695.154 242.055 694.92 241.745 694.421 241.768 Z" style="stroke-linecap: round; stroke-miterlimit: 8.18; stroke: rgb(255, 255, 255); stroke-width: 0px; transform-box: fill-box; transform-origin: 51.3099% 85.0844%;" transform="matrix(0.512331, 0.858788, -0.858788, 0.512331, 0.000019, 0.000021)"/>
  </g>
</svg>